# xmcd CD database file
#
# Track frame offsets:
#	150
#	12229
#	28329
#	42003
#	58251
#	76166
#	90362
#	111528
#	121813
#	138703
#
# Disc length: 2064 seconds
#
# Revision: 0
# Processed by: cddbd v1.5.1PL0 Copyright (c) Steve Scherf et al.
# Submitted via: CDex 1.40Release
#
DISCID=81080e0a
DTITLE=Yellowbelly - Bad Foot Down
DYEAR=2004
DGENRE=Country
TTITLE0=Nothing to Say
TTITLE1=Bad Foot Down
TTITLE2=Couldn't Make You Stay
TTITLE3=Come On Home
TTITLE4=It's Plain to See
TTITLE5=Void of Grace
TTITLE6=Anticipation
TTITLE7=Leaving Amarillo
TTITLE8=Alone
TTITLE9=Good for Me
EXTD=YEAR: 2004 ID3G: 2
EXTT0=
EXTT1=
EXTT2=
EXTT3=
EXTT4=
EXTT5=
EXTT6=
EXTT7=
EXTT8=
EXTT9=
PLAYORDER=
